<svg xmlns="http://www.w3.org/2000/svg" xmlns:xlink="http://www.w3.org/1999/xlink" width="14" height="14" version="1.1" viewBox="0 0 14 14"><title/><desc/><g id="Page-1" fill="none" fill-rule="evenodd" stroke="none" stroke-width="1"><g id="Core" fill="#000" transform="translate(-257.000000, -257.000000)"><g id="fullscreen-exit" transform="translate(257.000000, 257.000000)"><path id="Shape" d="M0,11 L3,11 L3,14 L5,14 L5,9 L0,9 L0,11 L0,11 Z M3,3 L0,3 L0,5 L5,5 L5,0 L3,0 L3,3 L3,3 Z M9,14 L11,14 L11,11 L14,11 L14,9 L9,9 L9,14 L9,14 Z M11,3 L11,0 L9,0 L9,5 L14,5 L14,3 L11,3 L11,3 Z"/></g></g></g></svg>